# xmcd CD database file
#
# Track frame offsets:
#	150
#	20036
#	38606
#	61304
#	78428
#	104220
#	124299
#	145973
#	168249
#	187046
#	210179
#	230884
#
# Disc length: 3349 seconds
#
# Revision: 0
# Processed by: cddbd v1.5PL3 Copyright (c) Steve Scherf et al.
# Submitted via: CDex 1.51
#
DISCID=ac0d130c
DTITLE=Auroritas Band - Todos a bailar
DYEAR=1900
DGENRE=Salsa
TTITLE0=Juliana
TTITLE1=Abusadora
TTITLE2=El Tiburon
TTITLE3=Asi te quiro yo
TTITLE4=Ritmo de la noche
TTITLE5=La Bomba
TTITLE6=La Ventanita
TTITLE7=Nacio Varon
TTITLE8=El Rompecintura
TTITLE9=Sopita Embotella
TTITLE10=No Puedo Olvidar La
TTITLE11=Procura
EXTD=
EXTT0=
EXTT1=
EXTT2=
EXTT3=
EXTT4=
EXTT5=
EXTT6=
EXTT7=
EXTT8=
EXTT9=
EXTT10=
EXTT11=
PLAYORDER=
